@startuml
'https://plantuml.com/class-diagram


List <|-- AbstractList
Collection <|-- AbstractCollection

Collection <|- List
AbstractCollection <|- AbstractList
AbstractList <|-- ArrayList

class ArrayList {
Object[] elementData
size()
}
class helolo{
}

enum TimeUnit {
DAYS
HOURS
MINUTES
}

@enduml